{
    "asset" : {
        "generator" : "Khronos glTF Blender I/O v3.2.40",
        "version" : "2.0"
    },
    "scene" : 0,
    "scenes" : [
        {
            "name" : "Scene",
            "nodes" : [
                0,
                1,
                2,
                3,
                4,
                5,
                6
            ]
        }
    ],
    "nodes" : [
        {
            "mesh" : 0,
            "name" : "Cylinder",
            "scale" : [
                0.029365194961428642,
                0.40986475348472595,
                0.029365194961428642
            ],
            "translation" : [
                0.016301050782203674,
                -0.7671067714691162,
                -0.3159174621105194
            ]
        },
        {
            "mesh" : 1,
            "name" : "Cylinder.001",
            "scale" : [
                0.029365194961428642,
                0.40986475348472595,
                0.029365194961428642
            ],
            "translation" : [
                0.016301050782203674,
                -0.7671067714691162,
                0.3755679428577423
            ]
        },
        {
            "mesh" : 2,
            "name" : "light",
            "scale" : [
                0.942017674446106,
                0.942017674446106,
                0.942017674446106
            ],
            "translation" : [
                0.10444294661283493,
                -6.85546350479126,
                0.04365387558937073
            ]
        },
        {
            "mesh" : 3,
            "name" : "bulbMain"
        },
        {
            "mesh" : 4,
            "name" : "screw",
            "rotation" : [
                -0.7071068286895752,
                -0.7071068286895752,
                0,
                1.1520234011186403e-07
            ],
            "scale" : [
                0.03542006015777588,
                0.03542006015777588,
                0.03542006015777588
            ],
            "translation" : [
                0,
                -1.5845768451690674,
                -0.49917858839035034
            ]
        },
        {
            "mesh" : 5,
            "name" : "bulbEnd"
        },
        {
            "mesh" : 6,
            "name" : "bulbMetal"
        }
    ],
    "materials" : [
        {
            "doubleSided" : true,
            "emissiveFactor" : [
                1,
                1,
                0.05301746819168329
            ],
            "name" : "Material.002",
            "pbrMetallicRoughness" : {
                "baseColorFactor" : [
                    0,
                    0,
                    0,
                    1
                ]
            }
        },
        {
            "doubleSided" : true,
            "name" : "glass",
            "pbrMetallicRoughness" : {}
        },
        {
            "doubleSided" : true,
            "name" : "metallic",
            "pbrMetallicRoughness" : {
                "baseColorFactor" : [
                    0.2870405614376068,
                    0.2870405614376068,
                    0.2870405614376068,
                    1
                ],
                "roughnessFactor" : 0.5
            }
        },
        {
            "doubleSided" : true,
            "name" : "Material",
            "pbrMetallicRoughness" : {
                "baseColorFactor" : [
                    0,
                    0,
                    0,
                    1
                ],
                "metallicFactor" : 0,
                "roughnessFactor" : 0.4000000059604645
            }
        }
    ],
    "meshes" : [
        {
            "name" : "Cylinder",
            "primitives" : [
                {
                    "attributes" : {
                        "POSITION" : 0,
                        "NORMAL" : 1,
                        "TEXCOORD_0" : 2
                    },
                    "indices" : 3
                }
            ]
        },
        {
            "name" : "Cylinder.001",
            "primitives" : [
                {
                    "attributes" : {
                        "POSITION" : 4,
                        "NORMAL" : 5,
                        "TEXCOORD_0" : 6
                    },
                    "indices" : 3
                }
            ]
        },
        {
            "name" : "BezierCurve",
            "primitives" : [
                {
                    "attributes" : {
                        "POSITION" : 7,
                        "NORMAL" : 8,
                        "TEXCOORD_0" : 9
                    },
                    "indices" : 10,
                    "material" : 0
                }
            ]
        },
        {
            "name" : "Sphere",
            "primitives" : [
                {
                    "attributes" : {
                        "POSITION" : 11,
                        "NORMAL" : 12,
                        "TEXCOORD_0" : 13
                    },
                    "indices" : 14,
                    "material" : 1
                }
            ]
        },
        {
            "name" : "Circle.002",
            "primitives" : [
                {
                    "attributes" : {
                        "POSITION" : 15,
                        "NORMAL" : 16,
                        "TEXCOORD_0" : 17
                    },
                    "indices" : 18,
                    "material" : 2
                }
            ]
        },
        {
            "name" : "Sphere.001",
            "primitives" : [
                {
                    "attributes" : {
                        "POSITION" : 19,
                        "NORMAL" : 20,
                        "TEXCOORD_0" : 21
                    },
                    "indices" : 22,
                    "material" : 3
                }
            ]
        },
        {
            "name" : "Sphere.002",
            "primitives" : [
                {
                    "attributes" : {
                        "POSITION" : 23,
                        "NORMAL" : 24,
                        "TEXCOORD_0" : 25
                    },
                    "indices" : 26,
                    "material" : 2
                }
            ]
        }
    ],
    "accessors" : [
        {
            "bufferView" : 0,
            "componentType" : 5126,
            "count" : 192,
            "max" : [
                0.9999999403953552,
                1,
                1
            ],
            "min" : [
                -1.0000001192092896,
                -1,
                -1
            ],
            "type" : "VEC3"
        },
        {
            "bufferView" : 1,
            "componentType" : 5126,
            "count" : 192,
            "type" : "VEC3"
        },
        {
            "bufferView" : 2,
            "componentType" : 5126,
            "count" : 192,
            "type" : "VEC2"
        },
        {
            "bufferView" : 3,
            "componentType" : 5123,
            "count" : 372,
            "type" : "SCALAR"
        },
        {
            "bufferView" : 4,
            "componentType" : 5126,
            "count" : 192,
            "max" : [
                0.9999999403953552,
                1,
                1
            ],
            "min" : [
                -1.0000001192092896,
                -1,
                -1
            ],
            "type" : "VEC3"
        },
        {
            "bufferView" : 5,
            "componentType" : 5126,
            "count" : 192,
            "type" : "VEC3"
        },
        {
            "bufferView" : 6,
            "componentType" : 5126,
            "count" : 192,
            "type" : "VEC2"
        },
        {
            "bufferView" : 7,
            "componentType" : 5126,
            "count" : 169,
            "max" : [
                -0.05731695517897606,
                7.533184051513672,
                0.3715754449367523
            ],
            "min" : [
                -0.09950783848762512,
                6.892110824584961,
                -0.37558215856552124
            ],
            "type" : "VEC3"
        },
        {
            "bufferView" : 8,
            "componentType" : 5126,
            "count" : 169,
            "type" : "VEC3"
        },
        {
            "bufferView" : 9,
            "componentType" : 5126,
            "count" : 169,
            "type" : "VEC2"
        },
        {
            "bufferView" : 10,
            "componentType" : 5123,
            "count" : 864,
            "type" : "SCALAR"
        },
        {
            "bufferView" : 11,
            "componentType" : 5126,
            "count" : 625,
            "max" : [
                0.9999997019767761,
                1,
                0.9999994039535522
            ],
            "min" : [
                -0.9999990463256836,
                -2.043320894241333,
                -0.9999987483024597
            ],
            "type" : "VEC3"
        },
        {
            "bufferView" : 12,
            "componentType" : 5126,
            "count" : 625,
            "type" : "VEC3"
        },
        {
            "bufferView" : 13,
            "componentType" : 5126,
            "count" : 625,
            "type" : "VEC2"
        },
        {
            "bufferView" : 14,
            "componentType" : 5123,
            "count" : 3072,
            "type" : "SCALAR"
        },
        {
            "bufferView" : 15,
            "componentType" : 5126,
            "count" : 2560,
            "max" : [
                7.812656879425049,
                15.081652641296387,
                0.9852781295776367
            ],
            "min" : [
                -0.9126585721969604,
                -15.074300765991211,
                -29.161474227905273
            ],
            "type" : "VEC3"
        },
        {
            "bufferView" : 16,
            "componentType" : 5126,
            "count" : 2560,
            "type" : "VEC3"
        },
        {
            "bufferView" : 17,
            "componentType" : 5126,
            "count" : 2560,
            "type" : "VEC2"
        },
        {
            "bufferView" : 18,
            "componentType" : 5123,
            "count" : 15168,
            "type" : "SCALAR"
        },
        {
            "bufferView" : 19,
            "componentType" : 5126,
            "count" : 128,
            "max" : [
                0.442821204662323,
                -1.6631462574005127,
                0.442821204662323
            ],
            "min" : [
                -0.4428209364414215,
                -1.9889781475067139,
                -0.4428211748600006
            ],
            "type" : "VEC3"
        },
        {
            "bufferView" : 20,
            "componentType" : 5126,
            "count" : 128,
            "type" : "VEC3"
        },
        {
            "bufferView" : 21,
            "componentType" : 5126,
            "count" : 128,
            "type" : "VEC2"
        },
        {
            "bufferView" : 22,
            "componentType" : 5123,
            "count" : 192,
            "type" : "SCALAR"
        },
        {
            "bufferView" : 23,
            "componentType" : 5126,
            "count" : 384,
            "max" : [
                0.48737141489982605,
                -1.2166836261749268,
                0.48737141489982605
            ],
            "min" : [
                -0.4873712360858917,
                -2.043320894241333,
                -0.4873714745044708
            ],
            "type" : "VEC3"
        },
        {
            "bufferView" : 24,
            "componentType" : 5126,
            "count" : 384,
            "type" : "VEC3"
        },
        {
            "bufferView" : 25,
            "componentType" : 5126,
            "count" : 384,
            "type" : "VEC2"
        },
        {
            "bufferView" : 26,
            "componentType" : 5123,
            "count" : 576,
            "type" : "SCALAR"
        }
    ],
    "bufferViews" : [
        {
            "buffer" : 0,
            "byteLength" : 2304,
            "byteOffset" : 0
        },
        {
            "buffer" : 0,
            "byteLength" : 2304,
            "byteOffset" : 2304
        },
        {
            "buffer" : 0,
            "byteLength" : 1536,
            "byteOffset" : 4608
        },
        {
            "buffer" : 0,
            "byteLength" : 744,
            "byteOffset" : 6144
        },
        {
            "buffer" : 0,
            "byteLength" : 2304,
            "byteOffset" : 6888
        },
        {
            "buffer" : 0,
            "byteLength" : 2304,
            "byteOffset" : 9192
        },
        {
            "buffer" : 0,
            "byteLength" : 1536,
            "byteOffset" : 11496
        },
        {
            "buffer" : 0,
            "byteLength" : 2028,
            "byteOffset" : 13032
        },
        {
            "buffer" : 0,
            "byteLength" : 2028,
            "byteOffset" : 15060
        },
        {
            "buffer" : 0,
            "byteLength" : 1352,
            "byteOffset" : 17088
        },
        {
            "buffer" : 0,
            "byteLength" : 1728,
            "byteOffset" : 18440
        },
        {
            "buffer" : 0,
            "byteLength" : 7500,
            "byteOffset" : 20168
        },
        {
            "buffer" : 0,
            "byteLength" : 7500,
            "byteOffset" : 27668
        },
        {
            "buffer" : 0,
            "byteLength" : 5000,
            "byteOffset" : 35168
        },
        {
            "buffer" : 0,
            "byteLength" : 6144,
            "byteOffset" : 40168
        },
        {
            "buffer" : 0,
            "byteLength" : 30720,
            "byteOffset" : 46312
        },
        {
            "buffer" : 0,
            "byteLength" : 30720,
            "byteOffset" : 77032
        },
        {
            "buffer" : 0,
            "byteLength" : 20480,
            "byteOffset" : 107752
        },
        {
            "buffer" : 0,
            "byteLength" : 30336,
            "byteOffset" : 128232
        },
        {
            "buffer" : 0,
            "byteLength" : 1536,
            "byteOffset" : 158568
        },
        {
            "buffer" : 0,
            "byteLength" : 1536,
            "byteOffset" : 160104
        },
        {
            "buffer" : 0,
            "byteLength" : 1024,
            "byteOffset" : 161640
        },
        {
            "buffer" : 0,
            "byteLength" : 384,
            "byteOffset" : 162664
        },
        {
            "buffer" : 0,
            "byteLength" : 4608,
            "byteOffset" : 163048
        },
        {
            "buffer" : 0,
            "byteLength" : 4608,
            "byteOffset" : 167656
        },
        {
            "buffer" : 0,
            "byteLength" : 3072,
            "byteOffset" : 172264
        },
        {
            "buffer" : 0,
            "byteLength" : 1152,
            "byteOffset" : 175336
        }
    ],
    "buffers" : [
        {
            "byteLength" : 176488,
            "uri" : "data:application/octet-stream;base64,"
        }
    ]
}
