{
    "asset" : {
        "generator" : "Khronos glTF Blender I/O v3.2.40",
        "version" : "2.0"
    },
    "scene" : 0,
    "scenes" : [
        {
            "name" : "Scene",
            "nodes" : [
                0
            ]
        }
    ],
    "nodes" : [
        {
            "mesh" : 0,
            "name" : "AK_47",
            "rotation" : [
                0.7071068286895752,
                0,
                0,
                0.7071067094802856
            ],
            "scale" : [
                0.15131670236587524,
                0.14391100406646729,
                0.1631280779838562
            ]
        }
    ],
    "materials" : [
        {
            "doubleSided" : true,
            "name" : "AK_47_M",
            "pbrMetallicRoughness" : {
                "baseColorTexture" : {
                    "index" : 0
                },
                "metallicFactor" : 0,
                "roughnessFactor" : 0.8999999761581421
            }
        }
    ],
    "meshes" : [
        {
            "name" : "AK_47",
            "primitives" : [
                {
                    "attributes" : {
                        "POSITION" : 0,
                        "NORMAL" : 1,
                        "TEXCOORD_0" : 2
                    },
                    "indices" : 3,
                    "material" : 0
                }
            ]
        }
    ],
    "textures" : [
        {
            "sampler" : 0,
            "source" : 0
        }
    ],
    "images" : [
        {
            "bufferView" : 4,
            "mimeType" : "image/png",
            "name" : "AK-47_C"
        }
    ],
    "accessors" : [
        {
            "bufferView" : 0,
            "componentType" : 5126,
            "count" : 9636,
            "max" : [
                157.76510620117188,
                9.097800254821777,
                58.0973014831543
            ],
            "min" : [
                -157.76510620117188,
                -9.097800254821777,
                -51.10459899902344
            ],
            "type" : "VEC3"
        },
        {
            "bufferView" : 1,
            "componentType" : 5126,
            "count" : 9636,
            "type" : "VEC3"
        },
        {
            "bufferView" : 2,
            "componentType" : 5126,
            "count" : 9636,
            "type" : "VEC2"
        },
        {
            "bufferView" : 3,
            "componentType" : 5123,
            "count" : 34263,
            "type" : "SCALAR"
        }
    ],
    "bufferViews" : [
        {
            "buffer" : 0,
            "byteLength" : 115632,
            "byteOffset" : 0
        },
        {
            "buffer" : 0,
            "byteLength" : 115632,
            "byteOffset" : 115632
        },
        {
            "buffer" : 0,
            "byteLength" : 77088,
            "byteOffset" : 231264
        },
        {
            "buffer" : 0,
            "byteLength" : 68526,
            "byteOffset" : 308352
        },
        {
            "buffer" : 0,
            "byteLength" : 848378,
            "byteOffset" : 376880
        }
    ],
    "samplers" : [
        {
            "magFilter" : 9729,
            "minFilter" : 9987
        }
    ],
    "buffers" : [
        {
            "byteLength" : 1225260,
            "uri" : "data:application/octet-stream;base64,"
        }
    ]
}
