{
    "asset" : {
        "generator" : "Khronos glTF Blender I/O v3.2.40",
        "version" : "2.0"
    },
    "scene" : 0,
    "scenes" : [
        {
            "name" : "Scene",
            "nodes" : [
                0,
                1
            ]
        }
    ],
    "nodes" : [
        {
            "mesh" : 0,
            "name" : "Sphere"
        },
        {
            "name" : "Circle",
            "rotation" : [
                0.7071062922477722,
                0,
                0,
                0.7071073651313782
            ],
            "scale" : [
                0.0771469995379448,
                0.07424265891313553,
                0.051819488406181335
            ],
            "translation" : [
                -0.28857532143592834,
                -1.6912083625793457,
                0.3489941954612732
            ]
        }
    ],
    "materials" : [
        {
            "doubleSided" : true,
            "name" : "Material.003",
            "pbrMetallicRoughness" : {
                "baseColorFactor" : [
                    0.8490703701972961,
                    0.8490703701972961,
                    0.8490703701972961,
                    1
                ],
                "roughnessFactor" : 0.5
            }
        },
        {
            "doubleSided" : true,
            "name" : "glass",
            "pbrMetallicRoughness" : {}
        }
    ],
    "meshes" : [
        {
            "name" : "Sphere",
            "primitives" : [
                {
                    "attributes" : {
                        "POSITION" : 0,
                        "NORMAL" : 1,
                        "TEXCOORD_0" : 2
                    },
                    "indices" : 3,
                    "material" : 0
                },
                {
                    "attributes" : {
                        "POSITION" : 4,
                        "NORMAL" : 5,
                        "TEXCOORD_0" : 6
                    },
                    "indices" : 7,
                    "material" : 1
                }
            ]
        }
    ],
    "accessors" : [
        {
            "bufferView" : 0,
            "componentType" : 5126,
            "count" : 56603,
            "max" : [
                0.9999999403953552,
                1,
                0.9999999403953552
            ],
            "min" : [
                -0.9999999403953552,
                -2.1375620365142822,
                -0.9999999403953552
            ],
            "type" : "VEC3"
        },
        {
            "bufferView" : 1,
            "componentType" : 5126,
            "count" : 56603,
            "type" : "VEC3"
        },
        {
            "bufferView" : 2,
            "componentType" : 5126,
            "count" : 56603,
            "type" : "VEC2"
        },
        {
            "bufferView" : 3,
            "componentType" : 5123,
            "count" : 88548,
            "type" : "SCALAR"
        },
        {
            "bufferView" : 4,
            "componentType" : 5126,
            "count" : 14628,
            "max" : [
                0.9999999403953552,
                1,
                0.9999999403953552
            ],
            "min" : [
                -0.9999999403953552,
                -1.3970271348953247,
                -0.9999997019767761
            ],
            "type" : "VEC3"
        },
        {
            "bufferView" : 5,
            "componentType" : 5126,
            "count" : 14628,
            "type" : "VEC3"
        },
        {
            "bufferView" : 6,
            "componentType" : 5126,
            "count" : 14628,
            "type" : "VEC2"
        },
        {
            "bufferView" : 7,
            "componentType" : 5123,
            "count" : 22140,
            "type" : "SCALAR"
        }
    ],
    "bufferViews" : [
        {
            "buffer" : 0,
            "byteLength" : 679236,
            "byteOffset" : 0
        },
        {
            "buffer" : 0,
            "byteLength" : 679236,
            "byteOffset" : 679236
        },
        {
            "buffer" : 0,
            "byteLength" : 452824,
            "byteOffset" : 1358472
        },
        {
            "buffer" : 0,
            "byteLength" : 177096,
            "byteOffset" : 1811296
        },
        {
            "buffer" : 0,
            "byteLength" : 175536,
            "byteOffset" : 1988392
        },
        {
            "buffer" : 0,
            "byteLength" : 175536,
            "byteOffset" : 2163928
        },
        {
            "buffer" : 0,
            "byteLength" : 117024,
            "byteOffset" : 2339464
        },
        {
            "buffer" : 0,
            "byteLength" : 44280,
            "byteOffset" : 2456488
        }
    ],
    "buffers" : [
        {
            "byteLength" : 2500768,
            "uri" : "data:application/octet-stream;base64,"
        }
    ]
}
